# xmcd CD database file
#
# Track frame offsets:
#	182
#	3765
#	30005
#	51375
#	74227
#	99400
#	121412
#	144165
#	168155
#	189470
#	210177
#	231167
#	252465
#	273862
#	295785
#
# Disc length: 4236 seconds
#
# Revision: 3
# Processed by: cddbd v1.5.2PL0 Copyright (c) Steve Scherf et al.
# Submitted via: CDex 1.70beta2
#
DISCID=c7108a0f
DTITLE=Jamie Aebersold - Volume 54 - Maiden Voyage
DYEAR=1991
DGENRE=Jazz
TTITLE0=Tuning Notes
TTITLE1=Impressions
TTITLE2=Bb Blues
TTITLE3=Solar Flair
TTITLE4=Summertime
TTITLE5=Watermelon Man
TTITLE6=Song for my Father
TTITLE7=Satin Doll
TTITLE8=Maiden Voyage
TTITLE9=F Blues
TTITLE10=Cantaloupe Island
TTITLE11=Footprints
TTITLE12=Doxy
TTITLE13=Autumn Leaves
TTITLE14=III/VI7/II/V7
EXTD=YEAR: 1991
EXTT0=
EXTT1=
EXTT2=
EXTT3=
EXTT4=
EXTT5=
EXTT6=
EXTT7=
EXTT8=
EXTT9=
EXTT10=
EXTT11=
EXTT12=
EXTT13=
EXTT14=
PLAYORDER=
